#Comment line ignore any data following # character 
#Hierarchical Translation and Rotation (.htr) file 
[Header]	
#Header keywords are followed by a single value 
FileType HTR		#Single word string
DataType HTRS		#Translation followed by rotation and scale data
FileVersion 1		#integer
NumSegments 84		#integer
NumFrames 2		#integer
DataFrameRate 30		#integer, data frame rate in this file
EulerRotationOrder ZYX
CalibrationUnits mm
RotationUnits Degrees
GlobalAxisofGravity Y
BoneLengthAxis Y
ScaleFactor 1.00
[SegmentNames&Hierarchy]
#CHILD	PARENT
MASTER GLOBAL
root MASTER
chest root
L_mid_tent01 root
R_mid_tent01 root
spine01 root
Bip01_Neck chest
L_humerus chest
R_humerus chest
weapon_bone chest
Bip01_Head Bip01_Neck
eye_left_bone Bip01_Head
eye_right_bone Bip01_Head
L_forearm L_humerus
L_front_hand L_forearm
L_weapon_bone L_forearm
L_front_hand01_01 L_front_hand
L_front_hand02_01 L_front_hand
L_front_hand03_01 L_front_hand
L_front_hand01_02 L_front_hand01_01
L_front_hand02_02 L_front_hand02_01
L_front_hand03_02 L_front_hand03_01
R_forearm R_humerus
R_front_hand R_forearm
R_weapon_bone R_forearm
R_front_hand01_01 R_front_hand
R_front_hand02_01 R_front_hand
R_front_hand03_01 R_front_hand
R_front_hand01_02 R_front_hand01_01
R_front_hand02_02 R_front_hand02_01
R_front_hand03_02 R_front_hand03_01
null_rope01_connect L_mid_tent01
Rope1_Seg01 null_rope01_connect
Rope1_Seg02 Rope1_Seg01
Rope1_Seg03 Rope1_Seg02
Rope1_Seg04 Rope1_Seg03
Rope1_Seg05 Rope1_Seg04
Rope1_Seg06 Rope1_Seg05
Rope1_Seg07 Rope1_Seg06
Rope1_Seg09 Rope1_Seg07
L_mid_hand01 Rope1_Seg09
L_mid_hand02 Rope1_Seg09
L_mid_hand03 Rope1_Seg09
null_rope02_connect R_mid_tent01
Rope2_Seg01 null_rope02_connect
Rope2_Seg02 Rope2_Seg01
Rope2_Seg03 Rope2_Seg02
Rope2_Seg04 Rope2_Seg03
Rope2_Seg05 Rope2_Seg04
Rope2_Seg06 Rope2_Seg05
Rope2_Seg07 Rope2_Seg06
Rope2_Seg09 Rope2_Seg07
R_mid_hand01 Rope2_Seg09
R_mid_hand02 Rope2_Seg09
R_mid_hand03 Rope2_Seg09
spine02 spine01
spine03 spine02
pelvis spine03
null_rope03_connect pelvis
null_rope04_connect pelvis
Rope3_Seg01 null_rope03_connect
Rope3_Seg02 Rope3_Seg01
Rope3_Seg03 Rope3_Seg02
Rope3_Seg04 Rope3_Seg03
Rope3_Seg05 Rope3_Seg04
Rope3_Seg06 Rope3_Seg05
Rope3_Seg07 Rope3_Seg06
Rope3_Seg08 Rope3_Seg07
Rope3_Seg09 Rope3_Seg08
R_rear_hand01 Rope3_Seg09
R_rear_hand02 Rope3_Seg09
R_rear_hand03 Rope3_Seg09
Rope4_Seg01 null_rope04_connect
Rope4_Seg02 Rope4_Seg01
Rope4_Seg03 Rope4_Seg02
Rope4_Seg04 Rope4_Seg03
Rope4_Seg05 Rope4_Seg04
Rope4_Seg06 Rope4_Seg05
Rope4_Seg07 Rope4_Seg06
Rope4_Seg08 Rope4_Seg07
Rope4_Seg09 Rope4_Seg08
L_rear_hand01 Rope4_Seg09
L_rear_hand02 Rope4_Seg09
L_rear_hand03 Rope4_Seg09
[BasePosition]
#SegmentName Tx, Ty, Tz, Rx, Ry, Rz, BoneLength
MASTER 0.000000 0.000000 0.000000 -90.000000 0.000000 0.000000 10.000000 
root 0.000000 0.000000 0.000000 0.000000 0.000000 0.000000 10.000000 
chest 0.000000 0.000000 0.000000 0.000000 0.000000 0.000000 10.000000 
L_mid_tent01 0.000000 0.000000 0.000000 0.000000 0.000000 0.000000 10.000000 
R_mid_tent01 0.000000 0.000000 0.000000 0.000000 0.000000 0.000000 10.000000 
spine01 0.000000 0.000000 0.000000 0.000000 0.000000 0.000000 10.000000 
Bip01_Neck 0.000000 0.000000 0.000000 0.000000 0.000000 0.000000 10.000000 
L_humerus 0.000000 0.000000 0.000000 0.000000 0.000000 0.000000 10.000000 
R_humerus 0.000000 0.000000 0.000000 0.000000 0.000000 0.000000 10.000000 
weapon_bone 0.000000 0.000000 0.000000 0.000000 0.000000 0.000000 10.000000 
Bip01_Head 0.000000 0.000000 0.000000 0.000000 0.000000 0.000000 10.000000 
eye_left_bone 0.000000 0.000000 0.000000 0.000000 0.000000 0.000000 10.000000 
eye_right_bone 0.000000 0.000000 0.000000 0.000000 0.000000 0.000000 10.000000 
L_forearm 0.000000 0.000000 0.000000 0.000000 0.000000 0.000000 10.000000 
L_front_hand 0.000000 0.000000 0.000000 0.000000 0.000000 0.000000 10.000000 
L_weapon_bone 0.000000 0.000000 0.000000 0.000000 0.000000 0.000000 10.000000 
L_front_hand01_01 0.000000 0.000000 0.000000 0.000000 0.000000 0.000000 10.000000 
L_front_hand02_01 0.000000 0.000000 0.000000 0.000000 0.000000 0.000000 10.000000 
L_front_hand03_01 0.000000 0.000000 0.000000 0.000000 0.000000 0.000000 10.000000 
L_front_hand01_02 0.000000 0.000000 0.000000 0.000000 0.000000 0.000000 10.000000 
L_front_hand02_02 0.000000 0.000000 0.000000 0.000000 0.000000 0.000000 10.000000 
L_front_hand03_02 0.000000 0.000000 0.000000 0.000000 0.000000 0.000000 10.000000 
R_forearm 0.000000 0.000000 0.000000 0.000000 0.000000 0.000000 10.000000 
R_front_hand 0.000000 0.000000 0.000000 0.000000 0.000000 0.000000 10.000000 
R_weapon_bone 0.000000 0.000000 0.000000 0.000000 0.000000 0.000000 10.000000 
R_front_hand01_01 0.000000 0.000000 0.000000 0.000000 0.000000 0.000000 10.000000 
R_front_hand02_01 0.000000 0.000000 0.000000 0.000000 0.000000 0.000000 10.000000 
R_front_hand03_01 0.000000 0.000000 0.000000 0.000000 0.000000 0.000000 10.000000 
R_front_hand01_02 0.000000 0.000000 0.000000 0.000000 0.000000 0.000000 10.000000 
R_front_hand02_02 0.000000 0.000000 0.000000 0.000000 0.000000 0.000000 10.000000 
R_front_hand03_02 0.000000 0.000000 0.000000 0.000000 0.000000 0.000000 10.000000 
null_rope01_connect 0.000000 0.000000 0.000000 0.000000 0.000000 0.000000 10.000000 
Rope1_Seg01 0.000000 0.000000 0.000000 0.000000 0.000000 0.000000 10.000000 
Rope1_Seg02 0.000000 0.000000 0.000000 0.000000 0.000000 0.000000 10.000000 
Rope1_Seg03 0.000000 0.000000 0.000000 0.000000 0.000000 0.000000 10.000000 
Rope1_Seg04 0.000000 0.000000 0.000000 0.000000 0.000000 0.000000 10.000000 
Rope1_Seg05 0.000000 0.000000 0.000000 0.000000 0.000000 0.000000 10.000000 
Rope1_Seg06 0.000000 0.000000 0.000000 0.000000 0.000000 0.000000 10.000000 
Rope1_Seg07 0.000000 0.000000 0.000000 0.000000 0.000000 0.000000 10.000000 
Rope1_Seg09 0.000000 0.000000 0.000000 0.000000 0.000000 0.000000 10.000000 
L_mid_hand01 0.000000 0.000000 0.000000 0.000000 0.000000 0.000000 10.000000 
L_mid_hand02 0.000000 0.000000 0.000000 0.000000 0.000000 0.000000 10.000000 
L_mid_hand03 0.000000 0.000000 0.000000 0.000000 0.000000 0.000000 10.000000 
null_rope02_connect 0.000000 0.000000 0.000000 0.000000 0.000000 0.000000 10.000000 
Rope2_Seg01 0.000000 0.000000 0.000000 0.000000 0.000000 0.000000 10.000000 
Rope2_Seg02 0.000000 0.000000 0.000000 0.000000 0.000000 0.000000 10.000000 
Rope2_Seg03 0.000000 0.000000 0.000000 0.000000 0.000000 0.000000 10.000000 
Rope2_Seg04 0.000000 0.000000 0.000000 0.000000 0.000000 0.000000 10.000000 
Rope2_Seg05 0.000000 0.000000 0.000000 0.000000 0.000000 0.000000 10.000000 
Rope2_Seg06 0.000000 0.000000 0.000000 0.000000 0.000000 0.000000 10.000000 
Rope2_Seg07 0.000000 0.000000 0.000000 0.000000 0.000000 0.000000 10.000000 
Rope2_Seg09 0.000000 0.000000 0.000000 0.000000 0.000000 0.000000 10.000000 
R_mid_hand01 0.000000 0.000000 0.000000 0.000000 0.000000 0.000000 10.000000 
R_mid_hand02 0.000000 0.000000 0.000000 0.000000 0.000000 0.000000 10.000000 
R_mid_hand03 0.000000 0.000000 0.000000 0.000000 0.000000 0.000000 10.000000 
spine02 0.000000 0.000000 0.000000 0.000000 0.000000 0.000000 10.000000 
spine03 0.000000 0.000000 0.000000 0.000000 0.000000 0.000000 10.000000 
pelvis 0.000000 0.000000 0.000000 0.000000 0.000000 0.000000 10.000000 
null_rope03_connect 0.000000 0.000000 0.000000 0.000000 0.000000 0.000000 10.000000 
null_rope04_connect 0.000000 0.000000 0.000000 0.000000 0.000000 0.000000 10.000000 
Rope3_Seg01 0.000000 0.000000 0.000000 0.000000 0.000000 0.000000 10.000000 
Rope3_Seg02 0.000000 0.000000 0.000000 0.000000 0.000000 0.000000 10.000000 
Rope3_Seg03 0.000000 0.000000 0.000000 0.000000 0.000000 0.000000 10.000000 
Rope3_Seg04 0.000000 0.000000 0.000000 0.000000 0.000000 0.000000 10.000000 
Rope3_Seg05 0.000000 0.000000 0.000000 0.000000 0.000000 0.000000 10.000000 
Rope3_Seg06 0.000000 0.000000 0.000000 0.000000 0.000000 0.000000 10.000000 
Rope3_Seg07 0.000000 0.000000 0.000000 0.000000 0.000000 0.000000 10.000000 
Rope3_Seg08 0.000000 0.000000 0.000000 0.000000 0.000000 0.000000 10.000000 
Rope3_Seg09 0.000000 0.000000 0.000000 0.000000 0.000000 0.000000 10.000000 
R_rear_hand01 0.000000 0.000000 0.000000 0.000000 0.000000 0.000000 10.000000 
R_rear_hand02 0.000000 0.000000 0.000000 0.000000 0.000000 0.000000 10.000000 
R_rear_hand03 0.000000 0.000000 0.000000 0.000000 0.000000 0.000000 10.000000 
Rope4_Seg01 0.000000 0.000000 0.000000 0.000000 0.000000 0.000000 10.000000 
Rope4_Seg02 0.000000 0.000000 0.000000 0.000000 0.000000 0.000000 10.000000 
Rope4_Seg03 0.000000 0.000000 0.000000 0.000000 0.000000 0.000000 10.000000 
Rope4_Seg04 0.000000 0.000000 0.000000 0.000000 0.000000 0.000000 10.000000 
Rope4_Seg05 0.000000 0.000000 0.000000 0.000000 0.000000 0.000000 10.000000 
Rope4_Seg06 0.000000 0.000000 0.000000 0.000000 0.000000 0.000000 10.000000 
Rope4_Seg07 0.000000 0.000000 0.000000 0.000000 0.000000 0.000000 10.000000 
Rope4_Seg08 0.000000 0.000000 0.000000 0.000000 0.000000 0.000000 10.000000 
Rope4_Seg09 0.000000 0.000000 0.000000 0.000000 0.000000 0.000000 10.000000 
L_rear_hand01 0.000000 0.000000 0.000000 0.000000 0.000000 0.000000 10.000000 
L_rear_hand02 0.000000 0.000000 0.000000 0.000000 0.000000 0.000000 10.000000 
L_rear_hand03 0.000000 0.000000 0.000000 0.000000 0.000000 0.000000 10.000000 
#Beginning of Data. Separated by tabs
#Fr	Tx	Ty	Tz	Rx	Ry	Rz	SF
[MASTER]
7 -115.836937 619.570435 398.277557 0.001660 0.001660 0.001660 745.594177
8 -135.301682 705.799500 576.775513 0.001660 0.001660 0.001660 921.482239
[root]
7 89.959846 -3.347855 1292.302734 -79.363533 4.808197 -98.517845 1295.434326
8 100.027916 13.719863 1224.285889 -81.536537 7.271684 -97.934242 1228.441895
[chest]
7 -84.512650 -34.090519 0.000000 3.373016 5.348766 159.165863 91.129311
8 -84.512650 -34.090519 0.000000 4.330866 6.469400 157.585602 91.129311
[L_mid_tent01]
7 27.299110 22.179161 -249.918701 -1.189963 17.078775 68.416061 252.381683
8 27.299112 22.179165 -249.918701 -2.000525 21.339958 67.299889 252.381683
[R_mid_tent01]
7 23.228794 24.509907 226.238495 171.441574 -25.223787 62.099098 228.744751
8 23.228794 24.509907 226.238495 171.065826 -24.109667 63.905067 228.744751
[spine01]
7 -0.361383 -0.195265 0.000000 -0.000001 -0.000007 22.052340 0.410763
8 -0.361383 -0.195265 0.000000 -0.000001 -0.000007 22.052340 0.410763
[Bip01_Neck]
7 165.484543 71.581718 0.000119 176.643677 -1.657967 43.431911 180.302734
8 165.484543 71.581718 0.000119 176.643677 -1.657967 43.431911 180.302734
[L_humerus]
7 -13.983130 -135.272980 -120.471481 6.721958 74.621857 96.751923 181.680161
8 -13.983130 -135.272980 -120.471481 12.467258 76.897591 102.556976 181.680161
[R_humerus]
7 -13.983309 -135.273102 125.287651 139.121536 -86.931015 -43.925472 184.909012
8 -13.983309 -135.273102 125.287651 177.469711 -82.246857 -82.352554 184.909012
[weapon_bone]
7 235.964890 -300.705902 0.000000 0.000000 -89.951546 -128.212341 382.234833
8 235.964890 -300.705902 0.000000 0.000000 -89.951546 -128.212341 382.234833
[Bip01_Head]
7 213.636154 185.181107 18.674231 4.962490 2.797846 -43.898743 283.339325
8 213.673691 185.076370 20.027418 4.962490 2.797846 -43.898743 283.391602
[eye_left_bone]
7 -24.626970 125.451866 -64.772606 0.000000 -90.000000 -99.840431 143.318359
8 -24.626970 125.451866 -64.772606 0.000000 -90.000000 -99.840431 143.318359
[eye_right_bone]
7 -24.626970 125.451866 64.327362 0.000000 -89.965736 80.156380 143.117676
8 -24.626970 125.451866 64.327362 0.000000 -89.965736 80.156380 143.117676
[L_forearm]
7 322.776093 0.000000 -0.000119 0.000401 -0.002313 -109.654572 322.776093
8 322.776093 0.000000 -0.000119 0.000402 -0.002313 -109.713531 322.776093
[L_front_hand]
7 241.149185 -0.042021 -3.300071 -170.027237 -1.834594 -27.425117 241.171753
8 241.149185 -0.042021 -3.300071 -169.847839 -1.837354 -27.421879 241.171753
[L_weapon_bone]
7 156.183838 0.000000 0.000000 0.000014 0.000007 0.000001 156.183838
8 156.183838 0.000000 0.000000 0.000014 0.000007 0.000001 156.183838
[L_front_hand01_01]
7 86.095154 20.947098 -0.655860 -0.322964 -0.505554 70.186295 88.609184
8 86.095154 20.947098 -0.655860 -0.304872 -0.514302 68.276085 88.609184
[L_front_hand02_01]
7 86.935165 -11.437475 24.513514 146.960190 -57.330456 -52.657890 91.046425
8 86.935165 -11.437475 24.513514 144.546585 -56.255684 -49.772915 91.046425
[L_front_hand03_01]
7 86.637497 -14.123976 -20.424902 -146.989075 55.546074 -54.434807 90.126129
8 86.637497 -14.123976 -20.424902 -144.732681 54.475929 -51.681915 90.126129
[L_front_hand01_02]
7 71.020905 -0.000179 0.000030 0.000321 -0.002325 -105.728416 71.020905
8 71.020905 -0.000179 0.000030 0.000320 -0.002325 -105.665085 71.020905
[L_front_hand02_02]
7 71.020927 -0.000119 0.000060 0.000321 -0.002325 -105.728416 71.020927
8 71.020927 -0.000119 0.000060 0.000320 -0.002325 -105.665085 71.020927
[L_front_hand03_02]
7 71.020905 -0.000060 0.000060 0.000321 -0.002325 -105.728416 71.020905
8 71.020905 -0.000060 0.000060 0.000320 -0.002325 -105.665085 71.020905
[R_forearm]
7 322.776428 -0.000060 0.000030 0.201930 0.065692 -108.365883 322.776428
8 322.776428 -0.000060 0.000030 0.201887 0.065824 -108.441071 322.776428
[R_front_hand]
7 238.847015 -0.006795 2.210259 -11.275249 -10.644036 -26.315348 238.857239
8 238.847015 -0.006795 2.210259 -11.454716 -10.646342 -26.312872 238.857239
[R_weapon_bone]
7 155.664093 0.002503 -0.000030 0.003487 0.001180 -90.988914 155.664078
8 155.664093 0.002503 -0.000030 0.003487 0.001180 -90.988930 155.664078
[R_front_hand01_01]
7 87.624611 14.231146 22.918642 -146.976166 -57.336147 52.779388 91.683487
8 87.624611 14.231146 22.918642 -144.302139 -56.138660 49.586018 91.683487
[R_front_hand02_01]
7 89.356956 14.367283 -19.491137 147.400665 55.711205 55.166904 92.579636
8 89.356956 14.367283 -19.491137 144.866989 54.526863 52.081070 92.579636
[R_front_hand03_01]
7 87.286232 -22.307278 -0.143439 0.123256 -0.437630 -70.429710 90.091743
8 87.286232 -22.307278 -0.143439 0.104166 -0.441299 -68.306503 90.091743
[R_front_hand01_02]
7 71.020905 0.000060 0.000119 0.002328 -0.000296 104.485847 71.020905
8 71.020905 0.000060 0.000119 0.002329 -0.000293 104.364967 71.020905
[R_front_hand02_02]
7 71.020844 -0.000030 -0.000119 0.002328 -0.000296 104.485847 71.020836
8 71.020844 -0.000030 -0.000119 0.002329 -0.000293 104.364967 71.020836
[R_front_hand03_02]
7 71.020905 0.000000 0.000030 0.002328 -0.000296 104.485847 71.020905
8 71.020905 0.000000 0.000030 0.002329 -0.000293 104.364967 71.020905
[null_rope01_connect]
7 328.732483 0.000000 -0.000238 -115.210197 -75.539940 130.869446 328.732483
8 328.732483 0.000000 -0.000238 -135.800217 -72.106270 149.488480 328.732483
[Rope1_Seg01]
7 -0.000005 0.000033 0.000019 110.868561 1.841464 -177.696472 0.000039
8 -0.000006 0.000032 0.000023 114.610573 6.806072 159.952637 0.000040
[Rope1_Seg02]
7 139.999863 -0.000179 0.000000 10.291714 -19.469299 -7.508806 139.999863
8 139.999863 -0.000179 0.000000 1.874028 -17.126442 -1.671155 139.999863
[Rope1_Seg03]
7 139.999924 0.000060 -0.000060 4.408073 -23.128735 -1.249290 139.999924
8 139.999924 0.000060 -0.000060 -0.392373 -10.843307 0.749326 139.999924
[Rope1_Seg04]
7 139.999924 -0.000060 -0.000119 4.119978 -26.488785 -14.359404 139.999924
8 139.999924 -0.000060 -0.000119 -2.081341 -15.388365 -2.762228 139.999924
[Rope1_Seg05]
7 139.999832 0.000119 -0.000060 10.844668 -44.523918 -40.090176 139.999832
8 139.999832 0.000119 -0.000060 -10.067395 -38.614330 -14.755234 139.999832
[Rope1_Seg06]
7 139.999954 0.000119 -0.000060 -1.535222 -15.664134 -12.178161 139.999954
8 139.999954 0.000119 -0.000060 -10.398382 -20.889465 -13.894811 139.999954
[Rope1_Seg07]
7 139.999985 0.000060 0.000000 -0.644905 -3.209879 -2.711662 139.999985
8 139.999985 0.000060 0.000000 -5.044178 -7.641813 -7.705445 139.999985
[Rope1_Seg09]
7 121.602913 0.000119 -0.000089 -89.793175 -1.359789 0.847147 121.602913
8 121.602913 0.000119 -0.000089 -89.793175 -1.359789 0.847147 121.602913
[L_mid_hand01]
7 103.859421 1.038730 8.195221 112.987701 -50.601227 -18.681456 104.187431
8 103.859421 1.038730 8.195221 111.216125 -46.770248 -16.325296 104.187431
[L_mid_hand02]
7 105.572853 -4.139662 -10.864139 -153.018723 36.866009 -49.082401 106.211075
8 105.572853 -4.139662 -10.864139 -150.384232 34.904903 -44.592545 106.211075
[L_mid_hand03]
7 104.641464 17.579376 -3.913581 -11.755013 14.733717 54.618225 106.179977
8 104.641464 17.579376 -3.913581 -12.781254 13.855400 50.452682 106.179977
[null_rope02_connect]
7 328.732849 0.000179 -0.000119 -161.490692 58.977509 -10.643903 328.732849
8 328.732849 0.000179 -0.000119 -162.952148 61.222885 -7.071434 328.732849
[Rope2_Seg01]
7 0.000043 0.000133 0.000000 -70.782112 30.410349 2.658267 0.000140
8 0.000044 0.000130 0.000000 -60.261372 21.016960 3.455579 0.000137
[Rope2_Seg02]
7 139.999741 -0.000060 -0.000119 -9.075056 -4.524428 13.097742 139.999756
8 139.999741 -0.000060 -0.000119 -15.125076 3.128878 17.158092 139.999756
[Rope2_Seg03]
7 140.000107 0.000030 0.000000 -12.368958 -1.768641 24.484829 140.000107
8 140.000107 0.000030 0.000000 -18.450451 8.022798 28.046362 140.000107
[Rope2_Seg04]
7 139.999802 0.000000 -0.000060 -5.720316 -30.765318 19.562609 139.999802
8 139.999802 0.000000 -0.000060 -3.069988 -31.465815 12.962790 139.999802
[Rope2_Seg05]
7 139.999985 -0.000060 0.000119 -9.852560 -35.433197 -5.144067 139.999985
8 139.999985 -0.000060 0.000119 -8.426752 -43.605675 -3.026752 139.999985
[Rope2_Seg06]
7 139.999893 -0.000030 -0.000119 -4.677007 -7.794439 -1.421007 139.999893
8 139.999893 -0.000030 -0.000119 -6.394021 -11.670772 -1.181558 139.999893
[Rope2_Seg07]
7 139.999893 0.000060 -0.000060 -2.907000 -3.733754 -0.952963 139.999893
8 139.999893 0.000060 -0.000060 -4.318775 -5.259939 -1.142542 139.999893
[Rope2_Seg09]
7 121.338966 0.000089 -0.000060 33.793236 -1.359788 -0.847141 121.338966
8 121.338966 0.000089 -0.000060 33.793236 -1.359788 -0.847141 121.338966
[R_mid_hand01]
7 104.680779 11.144459 -10.335981 -25.192726 41.648338 57.439434 105.778534
8 104.680779 11.144459 -10.335981 -27.387484 40.402237 54.098232 105.778534
[R_mid_hand02]
7 104.070427 2.443552 8.231699 60.800945 -59.436069 26.232430 104.424065
8 104.070427 2.443552 8.231699 62.946606 -56.952812 23.709986 104.424065
[R_mid_hand03]
7 106.028137 -11.221827 -5.996406 -174.361145 14.799507 -66.152634 106.788818
8 106.028137 -11.221827 -5.996406 -173.630432 14.503002 -63.260223 106.788818
[spine02]
7 129.756927 0.001550 0.000119 0.479968 -4.031352 -14.643958 129.756927
8 129.756927 0.001550 0.000119 0.491123 -4.029973 -14.821502 129.756927
[spine03]
7 78.614044 0.081654 -4.899004 1.970051 3.797495 17.550753 78.766579
8 78.614044 0.081657 -4.899003 1.975773 3.792778 17.661030 78.766579
[pelvis]
7 169.435242 0.051022 0.000000 -0.068779 -0.178342 16.268339 169.435257
8 169.435242 0.051022 0.000000 -0.069152 -0.178198 16.508181 169.435257
[null_rope03_connect]
7 -1.257226 -2.466202 137.391083 -38.787510 -74.755585 83.630791 137.418976
8 -1.257226 -2.466202 137.391083 -43.731808 -76.631638 85.727005 137.418976
[null_rope04_connect]
7 -1.259640 -2.480268 -137.844437 -38.787510 -74.755585 83.630791 137.872513
8 -1.259640 -2.480268 -137.844437 -43.731808 -76.631638 85.727005 137.872513
[Rope3_Seg01]
7 0.000000 0.000000 0.000000 -126.359673 -15.544966 -94.499039 0.000000
8 0.000000 0.000000 0.000000 -126.781204 -21.159332 -91.159714 0.000000
[Rope3_Seg02]
7 139.999924 -0.000119 0.000060 -6.907307 -38.835754 12.041192 139.999924
8 139.999924 -0.000119 0.000060 -2.064778 -45.275524 10.488757 139.999924
[Rope3_Seg03]
7 139.999924 -0.000119 0.000119 6.732371 -47.727615 8.439361 139.999924
8 139.999924 -0.000119 0.000119 13.762726 -54.833736 13.322809 139.999924
[Rope3_Seg04]
7 139.999924 0.000119 0.000000 2.490553 -4.900104 7.208281 139.999924
8 139.999924 0.000119 0.000000 3.123176 -4.361961 7.101227 139.999924
[Rope3_Seg05]
7 139.999924 -0.000238 0.000060 -0.018780 8.643538 7.216550 139.999924
8 139.999924 -0.000238 0.000060 -0.575856 7.735639 5.621011 139.999924
[Rope3_Seg06]
7 139.999893 -0.000119 -0.000060 0.573540 2.793037 5.172385 139.999893
8 139.999893 -0.000119 -0.000060 0.584382 3.672969 5.500247 139.999893
[Rope3_Seg07]
7 139.999771 0.000060 -0.000119 0.552700 1.794116 3.898889 139.999771
8 139.999771 0.000060 -0.000119 0.648545 2.312174 4.576879 139.999771
[Rope3_Seg08]
7 139.999985 -0.000060 0.000000 0.525359 1.015728 2.157923 139.999985
8 139.999985 -0.000060 0.000000 0.572173 1.363864 2.625186 139.999985
[Rope3_Seg09]
7 90.185997 -0.000179 -0.000060 89.793228 -1.359877 -0.847183 90.185997
8 90.185997 -0.000179 -0.000060 89.793228 -1.359877 -0.847183 90.185997
[R_rear_hand01]
7 103.366196 -6.073594 -10.757982 -172.199188 23.472191 -60.427750 104.101845
8 103.366196 -6.073594 -10.757982 -170.781250 22.977592 -56.830051 104.101845
[R_rear_hand02]
7 100.509819 12.039542 -7.992327 -21.205954 33.223911 57.720810 101.543350
8 100.509819 12.039542 -7.992327 -23.185038 31.960989 54.046932 101.543350
[R_rear_hand03]
7 101.539970 5.215704 5.435467 78.624985 -59.850563 13.735100 101.819031
8 101.539970 5.215704 5.435467 79.639069 -56.567928 12.539778 101.819031
[Rope4_Seg01]
7 0.000010 0.000038 -0.000114 44.497032 2.472995 -135.927490 0.000121
8 0.000010 0.000038 -0.000114 49.191727 -5.261179 -136.044403 0.000121
[Rope4_Seg02]
7 139.999985 0.000060 0.000119 -4.697684 2.121691 -7.194173 139.999985
8 139.999985 0.000060 0.000119 -5.207162 -0.544838 -8.184148 139.999985
[Rope4_Seg03]
7 139.999924 0.000000 -0.000238 -6.887904 4.378745 -9.643525 139.999924
8 139.999924 0.000000 -0.000238 -9.706966 0.521058 -12.355962 139.999924
[Rope4_Seg04]
7 139.999985 0.000000 0.000119 -8.146572 10.568602 -10.324382 139.999985
8 139.999985 0.000000 0.000119 -14.650313 6.988017 -14.869790 139.999985
[Rope4_Seg05]
7 139.999802 -0.000060 -0.000119 -15.046595 2.558948 -27.064102 139.999802
8 139.999802 -0.000060 -0.000119 -24.259735 3.597801 -26.946550 139.999802
[Rope4_Seg06]
7 139.999924 0.000000 0.000060 -9.505850 2.699578 -14.596857 139.999924
8 139.999924 0.000000 0.000060 -16.245430 5.514027 -16.732000 139.999924
[Rope4_Seg07]
7 139.999802 0.000000 0.000000 -4.202449 2.912666 -5.751204 139.999802
8 139.999802 0.000000 0.000000 -5.937206 4.912344 -5.633420 139.999802
[Rope4_Seg08]
7 139.999924 0.000000 0.000119 -3.686364 1.772717 -2.955719 139.999924
8 139.999924 0.000000 0.000119 -4.267338 2.857757 -2.674437 139.999924
[Rope4_Seg09]
7 90.185791 0.000060 0.000060 -135.617828 2.228885 0.850567 90.185791
8 90.185791 0.000060 0.000060 -135.617828 2.228885 0.850567 90.185791
[L_rear_hand01]
7 101.696655 -8.392275 -7.654577 -30.967802 -24.555588 142.276382 102.329041
8 101.696655 -8.392275 -7.654577 -31.684452 -23.583008 144.025742 102.329041
[L_rear_hand02]
7 102.726799 -1.568258 5.773216 82.497200 40.606583 171.238342 102.900848
8 102.726799 -1.568258 5.773216 82.701553 38.753956 171.553619 102.900848
[L_rear_hand03]
7 104.552910 9.721220 -10.420293 -164.603775 -19.511108 -140.104065 105.519653
8 104.552910 9.721220 -10.420293 -163.975403 -19.004421 -142.009338 105.519653
